<?xml version="1.0" encoding="utf-8"?>
<!-- Generator: Adobe Illustrator 17.1.0, SVG Export Plug-In . SVG Version: 6.00 Build 0)  -->
<!DOCTYPE svg PUBLIC "-//W3C//DTD SVG 1.1//EN" "http://www.w3.org/Graphics/SVG/1.1/DTD/svg11.dtd">
<svg version="1.1" id="Layer_1" xmlns="http://www.w3.org/2000/svg" xmlns:xlink="http://www.w3.org/1999/xlink" x="0px" y="0px"
	 viewBox="0 0 54.5 22" enable-background="new 0 0 54.5 22" xml:space="preserve">
<g>
	<polygon fill="#FFFFFF" points="54.5,1.6 45.7,1.6 46.2,0 54.5,0 	"/>
	<polyline fill="#FFFFFF" points="30.3,0 38.5,0 39,1.6 30.3,1.6 30.3,0 	"/>
	<path fill="#FFFFFF" d="M23.6,0c1.4,0.1,2.6,0.6,3.6,1.6c0,0-15.3,0-15.3,0V0H23.6z"/>
	<rect x="0" y="0" fill="#FFFFFF" width="10.6" height="1.6"/>
	<polygon fill="#FFFFFF" points="54.5,4.5 44.6,4.5 45.2,2.9 54.5,2.9 	"/>
	<polygon fill="#FFFFFF" points="40.1,4.5 30.3,4.5 30.3,2.9 39.5,2.9 	"/>
	<path fill="#FFFFFF" d="M28.4,2.9c0.2,0.5,0.4,1,0.4,1.6H12V2.9H28.4z"/>
	<rect x="0" y="2.9" fill="#FFFFFF" width="10.6" height="1.6"/>
	<polygon fill="#FFFFFF" points="44.1,5.9 43.6,7.4 51.5,7.4 51.5,5.9 	"/>
	<polygon fill="#FFFFFF" points="40.6,5.9 41.1,7.4 33.3,7.4 33.3,5.9 	"/>
	<path fill="#FFFFFF" d="M29,5.9c0,0.5-0.1,1.1-0.2,1.6h-4.6V5.9H29z"/>
	<rect x="3" y="5.9" fill="#FFFFFF" width="4.6" height="1.6"/>
	<rect x="15.1" y="5.9" fill="#FFFFFF" width="4.6" height="1.6"/>
	<path fill="#FFFFFF" d="M43.1,8.8h8.4v1.6H47c0,0,0-1.2,0-1.2s-0.4,1.2-0.4,1.2h-4L43.1,8.8z"/>
	<polygon fill="#FFFFFF" points="37.8,9.1 37.8,10.3 33.3,10.3 33.3,8.8 41.6,8.8 42.1,10.3 38.2,10.3 	"/>
	<path fill="#FFFFFF" d="M15.1,8.8h13.1v0c-0.3,0.5-0.8,1.2-1.3,1.6c0,0-11.8,0-11.8,0V8.8z"/>
	<rect x="3" y="8.8" fill="#FFFFFF" width="4.6" height="1.6"/>
	<rect x="47" y="11.7" fill="#FFFFFF" width="4.5" height="1.6"/>
	<path fill="#FFFFFF" d="M37.8,11.7h-4.5v1.6c0,0,4.5,0,4.5,0S37.8,11.7,37.8,11.7"/>
	<path fill="#FFFFFF" d="M46.1,11.7c0,0-0.5,1.6-0.5,1.6l-6.4,0c0,0-0.6-1.6-0.6-1.6H46.1z"/>
	<path fill="#FFFFFF" d="M15.1,11.7h11.7c0.5,0.4,1,1,1.4,1.6c0,0-13.1,0-13.1,0V11.7z"/>
	<rect x="3" y="11.7" fill="#FFFFFF" width="4.6" height="1.6"/>
	<rect x="47" y="14.6" fill="#FFFFFF" width="4.5" height="1.6"/>
	<rect x="33.3" y="14.6" fill="#FFFFFF" width="4.5" height="1.6"/>
	<path fill="#FFFFFF" d="M44.5,16.2c0,0,0.6-1.6,0.6-1.6h-5.4c0,0,0.6,1.6,0.6,1.6S44.5,16.2,44.5,16.2"/>
	<polyline fill="#FFFFFF" points="15.1,16.2 15.1,14.6 19.7,14.6 19.7,16.2 15.1,16.2 	"/>
	<path fill="#FFFFFF" d="M28.8,14.6c0.2,0.5,0.2,1,0.3,1.6h-4.9v-1.6H28.8z"/>
	<rect x="3" y="14.6" fill="#FFFFFF" width="4.6" height="1.6"/>
	<rect x="47" y="17.5" fill="#FFFFFF" width="7.5" height="1.6"/>
	<rect x="30.3" y="17.5" fill="#FFFFFF" width="7.5" height="1.6"/>
	<polygon fill="#FFFFFF" points="43.5,19.1 41.3,19.1 40.7,17.5 44.1,17.5 	"/>
	<path fill="#FFFFFF" d="M0,17.5v1.6h10.6c0,0,0-1.6,0-1.6C10.6,17.5,0,17.5,0,17.5"/>
	<path fill="#FFFFFF" d="M28.9,17.5c-0.1,0.5-0.2,1.1-0.6,1.6l-0.1,0H12v-1.6H28.9z"/>
	<polygon fill="#FFFFFF" points="42.5,22 42.3,22 41.8,20.4 43,20.4 	"/>
	<rect x="47" y="20.4" fill="#FFFFFF" width="7.5" height="1.6"/>
	<path fill="#FFFFFF" d="M12,22v-1.6c0,0,15.3,0,15.4,0c-1,1-2.4,1.6-4,1.6L12,22z"/>
	<rect x="30.3" y="20.4" fill="#FFFFFF" width="7.5" height="1.6"/>
	<path fill="#FFFFFF" d="M10.6,20.4c0,0,0,1.6,0,1.6c0,0-10.6,0-10.6,0c0,0,0-1.6,0-1.6C0,20.4,10.6,20.4,10.6,20.4"/>
</g>
</svg>
