<?xml version="1.0" encoding="utf-8"?>
<!-- Generator: Adobe Illustrator 17.1.0, SVG Export Plug-In . SVG Version: 6.00 Build 0)  -->
<!DOCTYPE svg PUBLIC "-//W3C//DTD SVG 1.1//EN" "http://www.w3.org/Graphics/SVG/1.1/DTD/svg11.dtd">
<svg version="1.1" id="Layer_1" xmlns="http://www.w3.org/2000/svg" xmlns:xlink="http://www.w3.org/1999/xlink" x="0px" y="0px"
	 viewBox="0 0 18 22" enable-background="new 0 0 18 22" xml:space="preserve">
<g>
	<g>
		<path fill="#B8B9BD" d="M15.4,2.6C13.7,1,11.5,0,9,0C6.5,0,4.3,1,2.6,2.6C1,4.2,0,6.6,0,9s1,4.4,2.6,6c1.6,1.6,3.9,2.6,6.4,2.6V22
			l6.4-6.6C17,13.7,18,11.6,18,9C18,6.6,17,4.2,15.4,2.6z M4.5,11c-1.1,0-2-0.9-2-2c0-1.1,0.9-2,2-2c1.1,0,2,0.9,2,2
			C6.5,10.1,5.6,11,4.5,11z M13.5,11c-1.1,0-2-0.9-2-2c0-1.1,0.9-2,2-2c1.1,0,2,0.9,2,2C15.5,10.1,14.6,11,13.5,11z M9,11
			c-1.1,0-2-0.9-2-2c0-1.1,0.9-2,2-2c1.1,0,2,0.9,2,2C11,10.1,10.1,11,9,11z"/>
	</g>
</g>
</svg>
