<?xml version="1.0" encoding="utf-8"?>
<!-- Generator: Adobe Illustrator 17.1.0, SVG Export Plug-In . SVG Version: 6.00 Build 0)  -->
<!DOCTYPE svg PUBLIC "-//W3C//DTD SVG 1.1//EN" "http://www.w3.org/Graphics/SVG/1.1/DTD/svg11.dtd">
<svg version="1.1" id="Layer_1" xmlns="http://www.w3.org/2000/svg" xmlns:xlink="http://www.w3.org/1999/xlink" x="0px" y="0px"
	 viewBox="0 0 30 30" enable-background="new 0 0 30 30" xml:space="preserve">
<g>
	<path fill="#01B0DA" d="M17.8,19c1.5-6.2,1.3-11.2-0.1-11.8c0,0,0,0,0,0l-0.1,0.9c0,0,0,0,0,0c1.1,0.3,0.8,6.6-0.3,11
		c-1.1,4.4-3.9,10.1-4.8,9.6l-0.3,0.8c0,0,0,0,0.1,0C13.8,29.9,16.3,25.2,17.8,19"/>
	<path fill="#FEE04F" d="M19.5,27.9c-2.8-0.1-6.3-1.7-9.3-4.6c-4.5-4.5-6.1-10.4-3.4-13.1l0.7,0.7c-2.3,2.3-1.3,8,2.9,12.1
		c4.2,4.1,9.9,5.2,12.2,2.9l0.7,0.7C22.4,27.5,21,27.9,19.5,27.9"/>
	<path fill="#8EC641" d="M19.8,9.3c1.8,0,3.3,0.6,4.2,1.7l-0.7,0.6c-2.1-2.5-7.9-2-12.4,1.7c-4.5,3.7-6.1,9.3-4,11.8l-0.7,0.6
		c-2.4-2.9-0.4-8.6,4.6-12.7C13.6,10.6,17,9.3,19.8,9.3"/>
	<path fill="#01B0DA" d="M4.6,20.1c-0.5-0.7,3.6-2.9,10.2-3.9c6.5-1,10.8-0.2,10.8,0.6l0.9-0.1c-0.4-2.5-11.4-0.8-11.9-0.8
		c-0.5,0.1-11.5,1.8-11.1,4.4c0,0,0,0,0,0L4.6,20.1C4.6,20.1,4.6,20.1,4.6,20.1"/>
	<path fill="#01B0DA" d="M10,23.7c-0.5,0-0.8-0.4-0.8-0.8c0-0.5,0.4-0.8,0.8-0.8c0.5,0,0.8,0.4,0.8,0.8C10.8,23.3,10.5,23.7,10,23.7
		"/>
	<path fill="#8EC641" d="M10,14.8c-0.5,0-0.8-0.4-0.8-0.8c0-0.5,0.4-0.8,0.8-0.8c0.5,0,0.8,0.4,0.8,0.8C10.8,14.4,10.4,14.8,10,14.8
		"/>
	<path fill="#01B0DA" d="M16.4,16.4c-0.4,0-0.6-0.3-0.6-0.6c0-0.4,0.3-0.6,0.6-0.6c0.4,0,0.6,0.3,0.6,0.6
		C17.1,16.1,16.8,16.4,16.4,16.4"/>
	<path fill="#01B0DA" d="M17.9,18.5c-0.5,0-0.8-0.4-0.8-0.8c0-0.5,0.4-0.8,0.8-0.8c0.5,0,0.8,0.4,0.8,0.8
		C18.7,18.2,18.3,18.5,17.9,18.5"/>
	<path fill="#8EC641" d="M24,11c2.4,2.9,0.6,8.7-4.4,12.8c-4.9,4.1-11.1,4.9-13.5,2l0.7-0.6c1.4,2.4,7.6,1.7,12.2-2
		c4.5-3.7,6.3-9.6,4.2-11.5L24,11z"/>
	<path fill="#FEE04F" d="M23.3,26.6l-0.7-0.7c2.3-2.3,0.9-7.7-3.3-11.8c-4.2-4.1-9.5-5.5-11.9-3.2l-0.7-0.7
		c2.7-2.7,8.7-1.3,13.3,3.2C24.6,17.9,26,23.9,23.3,26.6"/>
	<path fill="#01B0DA" d="M15.5,21.2c1.4-0.2,11.4-2,11-4.6l0,0l-0.9,0.1v0c0,0.7-3.7,2.5-10.3,3.5c-6.6,1-10.3,0.6-10.7-0.2l-1,0.1
		C4.2,22.8,13.8,21.4,15.5,21.2"/>
	<path fill="#0E416A" d="M14.4,4.4V0.6C14.4,0.3,14.7,0,15,0s0.6,0.3,0.6,0.6v3.8C15.7,4.8,15.4,5,15,5S14.4,4.8,14.4,4.4"/>
	<path fill="#0E416A" d="M21.1,6.5c-0.2-0.1-0.4-0.3-0.4-0.6c0-0.1,0-0.2,0.1-0.3l1.6-3.4C22.6,2,22.8,1.9,23,1.9
		c0.1,0,0.2,0,0.3,0.1c0.2,0.1,0.4,0.3,0.4,0.6c0,0.1,0,0.2-0.1,0.3l-1.6,3.4c-0.1,0.2-0.3,0.4-0.6,0.4C21.3,6.5,21.2,6.5,21.1,6.5"
		/>
	<path fill="#0E416A" d="M8.7,6.5c-0.1,0-0.2,0.1-0.3,0.1C8.2,6.5,8,6.4,7.9,6.2L6.2,2.8c0-0.1-0.1-0.2-0.1-0.3
		c0-0.2,0.1-0.5,0.4-0.6c0.1,0,0.2-0.1,0.3-0.1C7,1.9,7.2,2,7.3,2.2L9,5.7C9,5.7,9,5.8,9,5.9C9,6.2,8.9,6.4,8.7,6.5"/>
	<path fill="#0E416A" d="M25.6,10.3c-0.1-0.1-0.1-0.2-0.1-0.3c0-0.2,0.1-0.4,0.3-0.5l3.2-2c0.1-0.1,0.2-0.1,0.3-0.1
		c0.2,0,0.4,0.1,0.5,0.3C30,7.7,30,7.9,30,8c0,0.2-0.1,0.4-0.3,0.5l-3.2,2c-0.1,0.1-0.2,0.1-0.3,0.1C25.9,10.6,25.7,10.5,25.6,10.3"
		/>
	<path fill="#0E416A" d="M4.4,10.3c-0.1,0.2-0.3,0.3-0.5,0.3c-0.1,0-0.2,0-0.3-0.1l-3.2-2C0.1,8.4,0,8.2,0,8c0-0.1,0-0.2,0.1-0.3
		c0.1-0.2,0.3-0.3,0.5-0.3c0.1,0,0.2,0,0.3,0.1l3.2,2C4.4,9.6,4.5,9.8,4.5,10C4.5,10.1,4.4,10.2,4.4,10.3"/>
	<path fill="#01B0DA" d="M14.9,22c-0.7,0-1.3-0.6-1.3-1.3c0-0.7,0.6-1.3,1.3-1.3c0.7,0,1.3,0.6,1.3,1.3C16.2,21.4,15.6,22,14.9,22"
		/>
	<path fill="#01B0DA" d="M21.1,16.7c-0.8,0-1.4-0.6-1.4-1.4c0-0.8,0.6-1.4,1.4-1.4c0.8,0,1.4,0.6,1.4,1.4
		C22.5,16.1,21.9,16.7,21.1,16.7"/>
	<path fill="#8EC641" d="M19.6,24.8c-0.8,0-1.5-0.7-1.5-1.5c0-0.8,0.7-1.5,1.5-1.5c0.8,0,1.5,0.7,1.5,1.5
		C21.1,24.1,20.4,24.8,19.6,24.8"/>
	<path fill="#01B0DA" d="M13.1,17.8c-1,0-1.8-0.8-1.8-1.8s0.8-1.8,1.8-1.8c1,0,1.8,0.8,1.8,1.8S14,17.8,13.1,17.8"/>
	<path fill="#01B0DA" d="M12.5,28.7c-1.2-0.7-0.5-6.5,0.6-10.9c1.1-4.4,3.3-9.9,4.5-9.6l0.1-0.9c-1.4-0.6-4,3.5-5.6,10.4
		c-1.7,7.5-1.5,11.2,0.1,11.8L12.5,28.7C12.5,28.7,12.5,28.7,12.5,28.7"/>
	<path fill="#01B0DA" d="M15,30C8.7,30,3.4,24.8,3.4,18.4S8.7,6.8,15,6.8c6.4,0,11.6,5.2,11.6,11.6S21.4,30,15,30 M15,7.8
		c-5.9,0-10.6,4.8-10.6,10.6C4.4,24.3,9.2,29,15,29c5.9,0,10.6-4.8,10.6-10.6C25.7,12.5,20.9,7.8,15,7.8"/>
</g>
</svg>
