<?xml version="1.0" encoding="utf-8"?>
<!-- Generator: Adobe Illustrator 17.1.0, SVG Export Plug-In . SVG Version: 6.00 Build 0)  -->
<!DOCTYPE svg PUBLIC "-//W3C//DTD SVG 1.1//EN" "http://www.w3.org/Graphics/SVG/1.1/DTD/svg11.dtd">
<svg version="1.1" id="Layer_1" xmlns="http://www.w3.org/2000/svg" xmlns:xlink="http://www.w3.org/1999/xlink" x="0px" y="0px"
	 viewBox="0 0 28.6 30" enable-background="new 0 0 28.6 30" xml:space="preserve">
<g id="Finance_14_">
	<g>
		<rect x="22.6" y="2.3" fill="#FDD00F" width="3.8" height="24.4"/>
		<rect x="22.6" y="6.6" fill="#F8B817" width="3.8" height="21.2"/>
		<polyline fill="#FDD00F" points="11.8,30 9.3,30 9.3,5.6 13.2,5.6 13.2,30 11.8,30 		"/>
		<rect x="9.3" y="5.6" fill="#F8B817" width="3.8" height="21.2"/>
		<rect x="2.8" y="2.3" fill="#F8B817" width="3.8" height="24.4"/>
		<rect x="2.8" y="5.6" fill="#FDD00F" width="3.8" height="21.2"/>
		<rect x="15.9" y="0" fill="#F8B817" width="3.8" height="24.4"/>
		<rect x="15.9" y="3.3" fill="#FDD00F" width="3.8" height="25.3"/>
		<rect x="0" y="9" fill="#008B54" width="28.6" height="14.6"/>
		<rect x="0.9" y="9.8" fill="#8DC442" width="26.9" height="12.9"/>
		<g>
			<path fill="#FFFFFF" d="M14.3,12.7c2,0,3.6,1.6,3.6,3.6s-1.6,3.6-3.6,3.6c-2,0-3.6-1.6-3.6-3.6S12.3,12.7,14.3,12.7 M14.3,11.4
				c-2.7,0-4.9,2.2-4.9,4.9c0,2.7,2.2,4.9,4.9,4.9c2.7,0,4.9-2.2,4.9-4.9C19.2,13.6,17,11.4,14.3,11.4L14.3,11.4z"/>
		</g>
		<g>
			<path fill="#8DC442" d="M14.3,20.4c-2.3,0-4.1-1.8-4.1-4.1c0-2.3,1.8-4.1,4.1-4.1c2.3,0,4.1,1.8,4.1,4.1
				C18.4,18.6,16.6,20.4,14.3,20.4z"/>
			<path fill="#FFFFFF" d="M14.3,12.7c2,0,3.6,1.6,3.6,3.6c0,2-1.6,3.6-3.6,3.6c-2,0-3.6-1.6-3.6-3.6C10.7,14.3,12.3,12.7,14.3,12.7
				 M14.3,11.8c-2.5,0-4.6,2-4.6,4.6s2,4.6,4.6,4.6c2.5,0,4.6-2,4.6-4.6S16.8,11.8,14.3,11.8L14.3,11.8z"/>
		</g>
	</g>
</g>
</svg>
