<?xml version="1.0" encoding="utf-8"?>
<!-- Generator: Adobe Illustrator 17.1.0, SVG Export Plug-In . SVG Version: 6.00 Build 0)  -->
<!DOCTYPE svg PUBLIC "-//W3C//DTD SVG 1.1//EN" "http://www.w3.org/Graphics/SVG/1.1/DTD/svg11.dtd">
<svg version="1.1" id="Layer_1" xmlns="http://www.w3.org/2000/svg" xmlns:xlink="http://www.w3.org/1999/xlink" x="0px" y="0px"
	 viewBox="0 0 30.8 30.4" enable-background="new 0 0 30.8 30.4" xml:space="preserve">
<g>
	<g>
		<polygon fill="#02B098" points="17.5,15.2 13.2,7.7 17.5,0.2 26.2,0.2 30.5,7.7 26.2,15.2 		"/>
		<path fill="#FFFFFF" d="M26.3,15.4h-8.9l-4.5-7.7L17.4,0h8.9l4.5,7.7L26.3,15.4z M17.7,14.9H26l4.2-7.2L26,0.5h-8.3l-4.2,7.2
			L17.7,14.9z"/>
	</g>
	<g>
		<polygon fill="#02AED1" points="17.5,30.1 13.2,22.6 17.5,15.2 26.2,15.2 30.5,22.6 26.2,30.1 		"/>
		<path fill="#FFFFFF" d="M26.3,30.4h-8.9l-4.5-7.7l4.5-7.7h8.9l4.5,7.7L26.3,30.4z M17.7,29.9H26l4.2-7.2L26,15.4h-8.3l-4.2,7.2
			L17.7,29.9z"/>
	</g>
	<g>
		<polygon fill="#3C4C55" points="4.6,22.6 0.3,15.1 4.6,7.6 13.2,7.6 17.5,15.1 13.2,22.6 		"/>
		<path fill="#FFFFFF" d="M13.4,22.8H4.5L0,15.1l4.5-7.7h8.9l4.5,7.7L13.4,22.8z M4.7,22.3h8.3l4.2-7.2l-4.2-7.2H4.7l-4.2,7.2
			L4.7,22.3z"/>
	</g>
	<path fill="#FFFFFF" d="M17.5,23.7c-4.8,0-8.6-3.9-8.6-8.6c0-4.8,3.9-8.6,8.6-8.6s8.6,3.9,8.6,8.6C26.1,19.8,22.2,23.7,17.5,23.7z
		 M17.5,6.9c-4.5,0-8.1,3.7-8.1,8.1c0,4.5,3.7,8.1,8.1,8.1s8.1-3.7,8.1-8.1C25.6,10.5,21.9,6.9,17.5,6.9z"/>
	<path fill="#FFFFFF" d="M13,23l0.1-15.6L26.3,15L13,23z M13.5,8.2l-0.1,14L25.4,15L13.5,8.2z"/>
</g>
</svg>
