<?xml version="1.0" encoding="utf-8"?>
<!-- Generator: Adobe Illustrator 17.1.0, SVG Export Plug-In . SVG Version: 6.00 Build 0)  -->
<!DOCTYPE svg PUBLIC "-//W3C//DTD SVG 1.1//EN" "http://www.w3.org/Graphics/SVG/1.1/DTD/svg11.dtd">
<svg version="1.1" id="Layer_1" xmlns="http://www.w3.org/2000/svg" xmlns:xlink="http://www.w3.org/1999/xlink" x="0px" y="0px"
	 viewBox="0 0 101.5 16" enable-background="new 0 0 101.5 16" xml:space="preserve">
<g>
	<g>
		<g>
			<g>
				<path fill="#FFFFFF" d="M0,0.4h1.5v15.3H0V0.4z"/>
				<path fill="#FFFFFF" d="M4.6,0.4h6.5c2.6,0,4.9,0.9,4.9,3.7c0,1.6-1.1,3.1-2.7,3.4v0c2,0.3,3.2,1.7,3.2,3.7
					c0,1.5-0.5,4.3-5.5,4.3H4.6V0.4z M6.1,7.1h5c2.3,0,3.4-1.2,3.4-2.6c0-1.9-1.2-2.9-3.4-2.9h-5V7.1z M6.1,14.5h5
					c2.2,0,4-0.7,4-3.1c0-2-1.5-3-4-3h-5V14.5z"/>
				<path fill="#FFFFFF" d="M18.8,0.4h2.1l5.3,13.4l5.3-13.4h2.1v15.3h-1.5V2.5h0l-5.2,13.2h-1.4L20.3,2.5h0v13.2h-1.5V0.4z"/>
			</g>
			<g>
				<path fill="#FFFFFF" d="M51.7,5.2c-0.9-1.5-2.6-2.3-4.2-2.3c-2.9,0-5,2.2-5,5.1c0,2.7,2.2,5,5,5c1.8,0,3.4-0.8,4.3-2.3h3.1
					c-1,3.1-4.2,5.3-7.4,5.3c-2.1,0-4.2-0.9-5.6-2.4c-1.5-1.5-2.3-3.6-2.3-5.7C39.5,3.6,43,0,47.3,0c1.8,0,3.5,0.6,4.7,1.9V0.3h2.4
					v4.9H51.7z"/>
				<path fill="#FFFFFF" d="M59.8,13.3h1.5v2.4h-5.7v-2.4h1.6V2.8h-1.5V0.4h4.1V13.3z"/>
				<path fill="#FFFFFF" d="M61.8,9.9c0-3.3,2.7-6,6-6c3.3,0,6,2.7,6,6c0,3.3-2.7,6.1-6,6.1C64.4,16,61.8,13.2,61.8,9.9z M71.2,10
					c0-1.9-1.5-3.5-3.4-3.5c-1.9,0-3.5,1.5-3.5,3.4c0,1.9,1.5,3.5,3.4,3.5C69.7,13.4,71.2,11.9,71.2,10z"/>
				<path fill="#FFFFFF" d="M85.8,13.3h1.5v2.4h-3.9v-1.4C82.7,15.4,81.3,16,80,16c-1.2,0-2.4-0.5-3.2-1.5c-0.8-1-1-2.1-1-3.3V6.7
					h-1.5V4.3h4.1v6.2c0,0.7,0,1.5,0.4,2.1c0.4,0.7,1.2,1,1.9,1c0.7,0,1.5-0.4,1.9-0.9c0.5-0.7,0.5-1.5,0.5-2.2V6.7h-1.5V4.3h4.1
					V13.3z"/>
				<path fill="#FFFFFF" d="M97.4,14c-0.9,1.3-2.2,1.9-3.7,1.9c-3.2,0-5.8-2.7-5.8-5.9c0-3.2,2.6-5.9,5.8-5.9c1.5,0,2.9,0.7,3.8,1.9
					V2.8h-1.5V0.4h4.1v12.9h1.5v2.4h-4.1V14z M97.4,9.9c0-1.9-1.6-3.4-3.4-3.4c-1.9,0-3.5,1.6-3.5,3.5c0,1.9,1.5,3.4,3.4,3.4
					C95.9,13.5,97.4,11.9,97.4,9.9z"/>
			</g>
		</g>
	</g>
</g>
</svg>
