<?xml version="1.0" encoding="utf-8"?>
<!-- Generator: Adobe Illustrator 17.1.0, SVG Export Plug-In . SVG Version: 6.00 Build 0)  -->
<!DOCTYPE svg PUBLIC "-//W3C//DTD SVG 1.1//EN" "http://www.w3.org/Graphics/SVG/1.1/DTD/svg11.dtd">
<svg version="1.1" id="Layer_1" xmlns="http://www.w3.org/2000/svg" xmlns:xlink="http://www.w3.org/1999/xlink" x="0px" y="0px"
	 viewBox="0 0 28.9 30" enable-background="new 0 0 28.9 30" xml:space="preserve">
<g>
	<g>
		<path fill="#DBDCDD" d="M28.9,15c0,0.8-0.7,1.5-1.5,1.5H3.9c-0.8,0-1.5-0.7-1.5-1.5V1.5C2.4,0.7,3,0,3.9,0h23.6
			c0.8,0,1.5,0.7,1.5,1.5V15z"/>
	</g>
	<g id="Marketing_8_">
		<polygon fill="#83CFF3" points="0,14.8 0,30 13.1,16.9 		"/>
		<polygon fill="#DBDCDD" points="28.9,12.1 28.9,26.5 15.5,15.7 		"/>
		<g>
			<path fill="#83CFF3" d="M28.9,17.5c0,0.8-0.7,1.5-1.5,1.5H1.5C0.7,19,0,18.3,0,17.5V4c0-0.8,0.7-1.5,1.5-1.5h25.9
				c0.8,0,1.5,0.7,1.5,1.5L28.9,17.5z"/>
		</g>
		<path fill="#01659E" d="M4.5,5.6C3.9,5.6,3.4,5.8,3,6.2C2.6,6.6,2.4,7.2,2.4,7.7l0,13.7c0,1.2,1,2.1,2.1,2.1l19.9,0
			c0.6,0,1.1-0.2,1.5-0.6c0.4-0.4,0.6-0.9,0.6-1.5l0-13.7c0-1.2-1-2.1-2.1-2.1L4.5,5.6z"/>
		
			<rect x="6.8" y="5.1" transform="matrix(1.699999e-03 1 -1 1.699999e-03 28.4314 0.6378)" fill="#B4D9EE" width="14.1" height="18.9"/>
		<path fill="#DBDCDD" d="M24.9,15.2c-0.4,0-0.8-0.3-0.8-0.8c0-0.4,0.3-0.8,0.8-0.8c0.4,0,0.8,0.3,0.8,0.8
			C25.7,14.8,25.3,15.2,24.9,15.2"/>
		<path fill="#989798" d="M13.9,18.8c3.2,0,5.9-1.7,7.4-4.2c-1.5-2.5-4.3-4.2-7.4-4.2c-3.2,0-5.9,1.7-7.4,4.2
			C8,17.1,10.7,18.8,13.9,18.8z"/>
		<circle fill="#FFFFFF" cx="13.9" cy="14.6" r="3.1"/>
		<circle fill="#035F8A" cx="13.9" cy="14.6" r="1.1"/>
		<g>
			<g>
				<g opacity="0.2">
					<defs>
						<rect id="SVGID_1_" x="4.4" y="7.5" opacity="0.2" width="18.9" height="14.1"/>
					</defs>
					<clipPath id="SVGID_2_">
						<use xlink:href="#SVGID_1_"  overflow="visible"/>
					</clipPath>
					<g clip-path="url(#SVGID_2_)">
						<g>
							<defs>
								<rect id="SVGID_3_" x="4.4" y="7.5" width="18.9" height="14.1"/>
							</defs>
							<clipPath id="SVGID_4_">
								<use xlink:href="#SVGID_3_"  overflow="visible"/>
							</clipPath>
							<polyline clip-path="url(#SVGID_4_)" fill="#FFFFFF" points="23.3,21.6 23.3,7.5 4.4,7.5 							"/>
						</g>
					</g>
				</g>
			</g>
		</g>
	</g>
</g>
</svg>
